<?xml version="1.0" encoding="UTF-8"?>
<svg width="104px" height="147px" viewBox="0 0 134 123" version="1.1" xmlns="http://www.w3.org/2000/svg" xmlns:xlink="http://www.w3.org/1999/xlink">
    <title>Fill 3</title>
    <g id="flow-•-new-user" stroke="none" stroke-width="1" fill="none" fill-rule="evenodd" opacity="0.200000003">
        <g id="Group-10" transform="translate(-122.000000, -128.000000)" fill="#FFB600">
            <path d="M151.846213,181.7741 C152.233442,181.288235 152.62067,180.80237 153.007898,180.316504 C152.658713,180.186225 152.30817,180.055946 151.958985,179.925667 L151.737518,181.738848 C151.494311,184.134454 151.251105,186.53006 151.007898,188.925667 C152.748387,186.638882 151.866594,184.178902 151.846213,181.7741 M151.983535,201.021154 C152.896535,199.69298 152.056535,198.429823 151.723535,197.158925 C151.821535,198.453042 151.920535,199.74716 152.018535,201.041278 C151.698535,203.168213 151.898535,205.213104 152.647535,207.158925 C152.426535,205.114033 152.204535,203.067593 151.983535,201.021154 M240.26119,148.691109 C243.07068,153.251228 241.856942,161.055683 240.88982,168.842672 C238.58001,187.436836 235.140279,205.867983 230.170883,224.025494 C228.596086,229.783499 226.321737,235.544415 223.231781,240.756603 C220.694698,245.035808 215.085389,246.714014 210.417413,248.952591 C200.485069,253.715026 189.087534,255.441263 179.324436,260.186232 C172.056514,263.717304 167.058104,261.510748 161.463302,258.510938 C158.639306,256.99575 157.232143,254.205533 156.186039,251.617633 C151.577702,240.207875 147.741451,228.589979 144.653108,216.740657 C143.221767,211.250466 140.816857,205.902916 140.152766,200.272996 C139.367785,193.611118 137.41581,187.023471 138.170166,180.240785 C138.939028,173.312549 141.174692,166.899563 145.136669,160.805335 C149.537075,154.03866 154.632196,147.600931 157.863996,140.228763 C159.240533,137.086313 162.504571,135.248002 164.845006,132.786731 C166.260228,131.300653 166.963004,129.571505 168.068747,128.024296 C171.729304,122.903805 178.051059,120.541509 182.543341,116.239016 C184.540448,114.326474 189.011776,114.930511 192.17749,116.027967 C200.065983,118.761418 208.301028,121.043661 215.554444,124.825081 C225.191816,129.848052 233.771801,136.348369 240.26119,148.691109" id="Fill-3" transform="translate(190.000000, 188.500000) rotate(41.000000) translate(-190.000000, -188.500000) "></path>
        </g>
    </g>
</svg>